# xmcd
#
# Track frame offsets:
#	150
#	13743
#	26304
#	37184
#	48176
#	59423
#	69609
#	80046
#	90774
#	101737
#	113597
#	123778
#	132282
#	141192
#	153715
#	165530
#	178101
#	193337
#	204706
#	216049
#	229553
#	239884
#	252349
#	263408
#	277181
#	287450
#	296127
#	306745
#
# Disc length: 4233 seconds
#
# Revision: 1
# Processed by: cddbd v1.5.2PL0 Copyright (c) Steve Scherf et al.
# Submitted via: audiograbber 1.83.01
#
DISCID=a810871c
DTITLE=Calvin Boze - Comlete Recordings
DYEAR=1900
DGENRE=
TTITLE0=Saronia Bee
TTITLE1=Just A Dream
TTITLE2=Satisfied
TTITLE3=If You Ever Had The Blues
TTITLE4=Waiting And Drinking
TTITLE5=Working With My Baby
TTITLE6=Angel City Blues
TTITLE7=Safronia B
TTITLE8=Baby You're Tops With me
TTITLE9=Choo Choo's Bringing My Baby Back Home
TTITLE10=I've Got News For You
TTITLE11=Lizzy Lou Part 1
TTITLE12=Lizzy Lou Part 2
TTITLE13=Stinkin' From Drinkin'
TTITLE14=Look Out For Tomorrow Today
TTITLE15=Beale Street On A Saturday Night
TTITLE16=Slippin' And Slidin'
TTITLE17=I Can't Stop Cryin'
TTITLE18=I'm Gonna Steam Off The Stamp
TTITLE19=My Friend Told Me
TTITLE20=Fish Tail
TTITLE21=Hey Lawdy Miss Claudie
TTITLE22=Good Time Sue
TTITLE23=Keep Your Nose Out Of My Business
TTITLE24=Having A Time (Havin' A Ball)
TTITLE25=Shamrock
TTITLE26=Looped
TTITLE27=Blow Man Blow
EXTD=
EXTT0=
EXTT1=
EXTT2=
EXTT3=
EXTT4=
EXTT5=
EXTT6=
EXTT7=
EXTT8=
EXTT9=
EXTT10=
EXTT11=
EXTT12=
EXTT13=
EXTT14=
EXTT15=
EXTT16=
EXTT17=
EXTT18=
EXTT19=
EXTT20=
EXTT21=
EXTT22=
EXTT23=
EXTT24=
EXTT25=
EXTT26=
EXTT27=
PLAYORDER=
